<svg id="exdrR6qDA3a1" xmlns="http://www.w3.org/2000/svg" xmlns:xlink="http://www.w3.org/1999/xlink" viewBox="0 0 64 64" shape-rendering="geometricPrecision" text-rendering="geometricPrecision"><path d="M10.56,13.318h73.88c4.451415,0,8.06,3.608585,8.06,8.06s-3.608585,8.06-8.06,8.06h-73.88c-4.451415,0-8.06-3.608585-8.06-8.06s3.608585-8.06,8.06-8.06Zm0,52.244h73.88c4.451415,0,8.06,3.608585,8.06,8.06s-3.608585,8.06-8.06,8.06h-73.88c-4.451415,0-8.06-3.608585-8.06-8.06s3.608585-8.06,8.06-8.06Zm0-26.122h73.88c4.451415,0,8.06,3.608585,8.06,8.06s-3.608585,8.06-8.06,8.06h-73.88c-4.451415,0-8.06-3.608585-8.06-8.06s3.608585-8.06,8.06-8.06Z" transform="matrix(.64034 0 0 0.640336 1.583851 1.584042)" fill="#66f6dc" fill-rule="evenodd"/></svg>
